#!OML:ASF E:\emotionWalksFemale\Project 1\Capture day 1\Session 1\Female1.ASF
:FULLY-SPECIFIED
:DEGREES
259
root 8.84679 11.2711 10.4474 198.728 -8.06236 -180.527
lowerback 42.5394 0.861186 3.70821
upperback 0.0156053 2.46666 2.04048
thorax -20.918 0.333861 -0.767002
lowerneck -12.0111 -2.29573 -6.74347
upperneck -23.8066 -5.24411 6.19938
head -4.99983 -3.93436 3.28125
rclavicle 4.77083e-015 -7.95139e-015
rhumerus 11.7651 6.27084 -89.0427
rradius 34.5952
rwrist 34.9672
rhand -33.0858 -53.3483
rfingers 7.12502
rthumb -6.29703 -83.2347
lclavicle 4.77083e-015 -7.95139e-015
lhumerus 11.5123 -6.89462 91.1783
lradius 34.5666
lwrist -11.3713
lhand -30.0194 -73.6291
lfingers 7.12502
lthumb -3.33615 -43.6754
rfemur -78.9242 8.2936 22.0542
rtibia 102.003
rfoot -45.0749 -27.529
rtoes 30.6839
lfemur -82.0818 -3.86885 -22.377
ltibia 98.918
lfoot -38.4036 5.03116
ltoes -33.1693
260
root 8.86364 11.2471 10.4381 198.759 -8.27224 -180.58
lowerback 42.5919 0.762231 3.76327
upperback 0.0383433 2.34418 1.94146
thorax -20.9019 0.275148 -0.845605
lowerneck -11.5514 -2.35807 -7.01211
upperneck -23.9013 -5.22286 6.56634
head -5.07792 -3.90387 3.45721
rclavicle -2.8625e-014 -4.85035e-014
rhumerus 13.8667 7.45676 -88.2166
rradius 35.2439
rwrist 35.879
rhand -31.9265 -53.7737
rfingers 7.12502
rthumb -5.1778 -83.6904
lclavicle -2.8625e-014 -4.85035e-014
lhumerus 14.0999 -6.97635 91.1546
lradius 33.7022
lwrist -11.5209
lhand -30.2587 -73.4104
lfingers 7.12502
lthumb -3.56731 -43.4605
rfemur -79.052 8.72592 21.8613
rtibia 102.186
rfoot -44.8869 -28.2724
rtoes 29.874
lfemur -82.2741 -4.00736 -22.3481
ltibia 99.0446
lfoot -38.3136 5.47251
ltoes -34.4942
261
root 8.88224 11.2476 10.4276 198.653 -8.43229 -180.515
lowerback 42.6959 0.687601 3.80181
upperback 0.120195 2.23909 1.89686
thorax -20.83 0.222847 -0.859214
lowerneck -11.2444 -2.38 -7.07439
upperneck -23.9949 -5.22955 6.64388
head -5.14851 -3.89993 3.50373
rclavicle -3.26007e-014 -5.32743e-014
rhumerus 16.1061 8.80038 -87.1895
rradius 35.7287
rwrist 35.8771
rhand -31.7711 -54.0383
rfingers 7.12502
rthumb -5.02767 -83.9587
lclavicle -3.26007e-014 -5.32743e-014
lhumerus 16.7547 -6.94104 90.9972
lradius 33.1456
lwrist -11.19
lhand -30.2076 -73.0437
lfingers 7.12502
lthumb -3.51794 -43.093
rfemur -78.8488 8.36337 22.2837
rtibia 102.172
rfoot -44.3148 -28.1488
rtoes 29.6876
lfemur -82.1419 -3.99358 -22.1884
ltibia 99.0411
lfoot -38.3358 5.67357
ltoes -35.1887
262
root 8.89993 11.2571 10.4184 198.568 -8.52717 -180.467
lowerback 42.7481 0.64608 3.77939
upperback 0.212543 2.14242 1.84474
thorax -20.7281 0.180658 -0.853939
lowerneck -11.11 -2.34181 -7.02385
upperneck -24.0485 -5.19203 6.5735
head -5.19227 -3.88077 3.47882
rclavicle -2.22639e-014 -2.54444e-014
rhumerus 18.466 9.80238 -86.1556
rradius 36.1304
rwrist 35.5979
rhand -31.7046 -54.1292
rfingers 7.12502
rthumb -4.9635 -84.0511
lclavicle -2.22639e-014 -2.54444e-014
lhumerus 19.4052 -6.75665 90.7655
lradius 32.7827
lwrist -11.0054
lhand -30.0385 -73.0689
lfingers 7.12502
lthumb -3.35462 -43.1156
rfemur -78.6033 8.44835 22.4412
rtibia 102.098
rfoot -43.9671 -28.4969
rtoes 28.8713
lfemur -81.9646 -3.95613 -22.0239
ltibia 99.0092
lfoot -38.4154 5.59441
ltoes -35.1225
263
root 8.91722 11.2715 10.4136 198.597 -8.64739 -180.401
lowerback 42.7003 0.550812 3.85159
upperback 0.1768 2.04142 1.71913
thorax -20.7516 0.132193 -0.985677
lowerneck -10.8023 -2.3161 -6.96405
upperneck -23.9993 -5.1171 6.60547
head -5.22616 -3.82932 3.48338
rclavicle -1.35174e-014 7.95139e-015
rhumerus 20.5417 10.2864 -85.248
rradius 36.8321
rwrist 35.2839
rhand -31.1482 -54.6588
rfingers 7.12502
rthumb -4.42621 -84.5925
lclavicle -1.35174e-014 7.95139e-015
lhumerus 21.8409 -6.52121 90.4686
lradius 32.4383
lwrist -11.2792
lhand -29.618 -73.4751
lfingers 7.12502
lthumb -2.94858 -43.5158
rfemur -78.4906 8.81169 22.4363
rtibia 101.948
rfoot -43.6439 -29.105
rtoes 27.8136
lfemur -81.9322 -3.90093 -21.8451
ltibia 98.9175
lfoot -38.4485 5.25831
ltoes -34.6017
264
root 8.93105 11.2862 10.4089 198.698 -8.88092 -180.326
lowerback 42.5132 0.35186 4.05225
upperback 0.147846 1.86346 1.56943
thorax -20.712 0.0440886 -1.17297
lowerneck -10.98 -2.39148 -6.90203
upperneck -23.5576 -5.13692 6.67529
head -5.05307 -3.81716 3.46938
rclavicle 1.27222e-014 1.11319e-014
rhumerus 22.7149 10.4885 -84.2577
rradius 37.5477
rwrist 35.1682
rhand -30.2695 -55.2357
rfingers 7.12502
rthumb -3.57776 -85.1854
lclavicle 1.27222e-014 1.11319e-014
lhumerus 24.3197 -6.15437 90.0633
lradius 32.1522
lwrist -11.946
lhand -28.7819 -74.2021
lfingers 7.12502
lthumb -2.14103 -44.2331
rfemur -78.4585 8.86518 22.5324
rtibia 101.774
rfoot -43.6773 -29.2869
rtoes 27.5639
lfemur -82.0065 -3.65165 -21.8281
ltibia 98.7909
lfoot -38.4828 4.51933
ltoes -33.6413
265
root 8.94356 11.305 10.4012 198.775 -9.10577 -180.321
lowerback 42.3539 0.201863 4.0586
upperback 0.248085 1.63014 1.46146
thorax -20.5264 -0.0497843 -1.17723
lowerneck -11.6209 -2.35814 -6.83893
upperneck -23.187 -5.05415 6.78244
head -4.84033 -3.78641 3.4617
rclavicle -4.37326e-014 -3.18055e-014
rhumerus 25.2847 10.8077 -82.8653
rradius 38.1957
rwrist 34.8944
rhand -30.2788 -55.2037
rfingers 7.12502
rthumb -3.58671 -85.1533
lclavicle -4.37326e-014 -3.18055e-014
lhumerus 26.9192 -6.13193 89.0821
lradius 32.342
lwrist -12.6073
lhand -28.3859 -74.605
lfingers 7.12502
lthumb -1.75866 -44.6325
rfemur -78.3628 8.75502 22.5931
rtibia 101.552
rfoot -44.0679 -29.1672
rtoes 28.1655
lfemur -81.9554 -3.94065 -21.5862
ltibia 98.5964
lfoot -38.4376 4.37816
ltoes -33.2717
266
root 8.95525 11.3364 10.3911 198.779 -9.19496 -180.301
lowerback 42.1986 0.193707 3.87168
upperback 0.342475 1.50096 1.43117
thorax -20.3574 -0.0818306 -1.04523
lowerneck -11.6667 -2.20158 -6.8672
upperneck -23.3337 -4.84701 6.91674
head -4.88769 -3.70489 3.51671
rclavicle 2.54444e-014 4.37326e-014
rhumerus 27.9891 11.1827 -81.013
rradius 38.6304
rwrist 33.8267
rhand -31.279 -54.888
rfingers 7.12502
rthumb -4.55254 -84.8191
lclavicle 2.54444e-014 4.37326e-014
lhumerus 29.5485 -6.36985 87.8047
lradius 32.5483
lwrist -13.357
lhand -28.6152 -74.6659
lfingers 7.12502
lthumb -1.98004 -44.6954
rfemur -78.0941 8.96294 22.515
rtibia 101.212
rfoot -43.9022 -29.525
rtoes 27.6789
lfemur -81.7041 -4.08234 -21.3962
ltibia 98.2979
lfoot -38.4285 4.47102
ltoes -33.6789
267
root 8.96548 11.3732 10.3748 198.746 -9.19637 -180.224
lowerback 41.7768 0.28568 3.87717
upperback 0.288459 1.63927 1.46167
thorax -20.2684 -0.0128075 -1.08962
lowerneck -10.5845 -2.27988 -7.41604
upperneck -23.8587 -4.8882 7.19559
head -5.19425 -3.68634 3.74559
rclavicle 4.13472e-014 2.94201e-014
rhumerus 30.4085 11.1934 -78.5901
rradius 38.847
rwrist 32.2326
rhand -31.5712 -55.083
rfingers 7.12502
rthumb -4.83468 -85.0079
lclavicle 4.13472e-014 2.94201e-014
lhumerus 31.9287 -6.68713 87.0719
lradius 32.5039
lwrist -14.3063
lhand -28.667 -74.6768
lfingers 7.12502
lthumb -2.03009 -44.7067
rfemur -77.717 9.22004 22.5183
rtibia 100.824
rfoot -43.7924 -29.7411
rtoes 27.4032
lfemur -81.3676 -3.87648 -21.3316
ltibia 97.9636
lfoot -38.4744 4.45904
ltoes -34.4084
268
root 8.98119 11.4109 10.3504 198.681 -9.36683 -180.234
lowerback 41.5932 0.198443 3.54349
upperback 0.517495 1.30338 1.40124
thorax -19.9249 -0.11901 -0.805537
lowerneck -11.7497 -2.10671 -7.11795
upperneck -23.4807 -4.68524 7.23898
head -4.91583 -3.64023 3.66811
rclavicle 4.77083e-015 1.90833e-014
rhumerus 33.5126 10.9996 -77.0144
rradius 39.241
rwrist 31.2145
rhand -31.3141 -55.0854
rfingers 7.12502
rthumb -4.58645 -85.0157
lclavicle 4.77083e-015 1.90833e-014
lhumerus 34.8753 -6.74141 84.9746
lradius 33.0249
lwrist -14.3642
lhand -28.5593 -74.4942
lfingers 7.12502
lthumb -1.92612 -44.5231
rfemur -77.2151 9.15227 22.6462
rtibia 100.436
rfoot -43.9059 -29.6692
rtoes 27.66
lfemur -80.9506 -3.78676 -21.3016
ltibia 97.5852
lfoot -38.4205 4.34166
ltoes -34.9337
269
root 8.99915 11.4483 10.3259 198.615 -9.54992 -180.295
lowerback 41.2196 0.230589 3.61951
upperback 0.345716 1.42781 1.4292
thorax -20.0032 -0.0580761 -0.884968
lowerneck -11.1218 -2.51681 -7.95013
upperneck -23.3572 -5.05014 7.64883
head -4.9113 -3.72815 3.94208
rclavicle 6.36111e-015 -1.35174e-014
rhumerus 34.8968 9.75097 -75.4118
rradius 40.0888
rwrist 30.9644
rhand -31.2519 -55.0983
rfingers 7.12502
rthumb -4.52641 -85.0299
lclavicle 6.36111e-015 -1.35174e-014
lhumerus 36.4774 -7.71341 83.3269
lradius 34.2032
lwrist -13.813
lhand -28.6554 -74.375
lfingers 7.12502
lthumb -2.0189 -44.4048
rfemur -76.734 9.01876 22.7505
rtibia 100.059
rfoot -43.9432 -29.5914
rtoes 27.6068
lfemur -80.5345 -3.74608 -21.2826
ltibia 97.2017
lfoot -38.311 3.98764
ltoes -34.6552
270
root 9.01082 11.4892 10.2989 198.596 -9.6713 -180.328
lowerback 40.6329 0.271249 3.78568
upperback 0.0778868 1.62188 1.44713
thorax -20.1168 0.0294781 -1.06243
lowerneck -9.63469 -2.87181 -8.67057
upperneck -23.7191 -5.43453 7.90376
head -5.19666 -3.83146 4.19451
rclavicle -1.11319e-014 1.43125e-014
rhumerus 35.9948 8.423 -73.6585
rradius 40.8568
rwrist 30.6604
rhand -31.1004 -55.5967
rfingers 7.12502
rthumb -4.38009 -85.5314
lclavicle -1.11319e-014 1.43125e-014
lhumerus 37.8538 -8.41345 81.9612
lradius 35.2403
lwrist -13.3016
lhand -28.8059 -74.3942
lfingers 7.12502
lthumb -2.16427 -44.4254
rfemur -76.3059 8.92445 22.7991
rtibia 99.6973
rfoot -43.8128 -29.65
rtoes 26.6796
lfemur -80.1387 -3.69299 -21.2566
ltibia 96.8088
lfoot -38.2936 3.70424
ltoes -34.6606
271
root 9.01713 11.5287 10.2721 198.652 -9.83258 -180.296
lowerback 40.3005 0.0568548 3.35689
upperback 0.359638 1.0553 1.2947
thorax -19.6547 -0.162166 -0.718284
lowerneck -11.33 -2.40106 -7.34692
upperneck -23.3563 -5.0063 7.40295
head -4.90479 -3.75687 3.75855
rclavicle -7.55382e-015 7.55382e-015
rhumerus 39.0565 7.72257 -72.7468
rradius 41.3475
rwrist 29.8753
rhand -30.9088 -55.0604
rfingers 7.12502
rthumb -4.19507 -84.9989
lclavicle -7.55382e-015 7.55382e-015
lhumerus 40.7894 -7.58569 79.0006
lradius 35.9482
lwrist -12.5015
lhand -28.801 -74.3641
lfingers 7.12502
lthumb -2.15953 -44.3953
rfemur -75.9858 8.79451 22.8693
rtibia 99.3356
rfoot -43.6009 -29.6166
rtoes 25.9341
lfemur -79.8699 -3.67778 -21.1773
ltibia 96.4103
lfoot -38.2342 3.55583
ltoes -35.1247
272
root 9.02553 11.5776 10.2427 198.626 -10.0657 -180.303
lowerback 39.8275 -0.0616267 3.32141
upperback 0.344602 0.879802 1.23246
thorax -19.4973 -0.218589 -0.687264
lowerneck -11.3639 -2.35118 -7.25295
upperneck -23.3092 -4.94316 7.39879
head -4.89071 -3.73049 3.73889
rclavicle 4.17448e-014 7.95139e-015
rhumerus 41.235 6.57941 -71.0112
rradius 41.8082
rwrist 28.5574
rhand -30.747 -54.4312
rfingers 7.12502
rthumb -4.03878 -84.3727
lclavicle 4.17448e-014 7.95139e-015
lhumerus 43.0298 -7.2782 76.8788
lradius 36.3696
lwrist -11.7835
lhand -28.7912 -74.5269
lfingers 7.12502
lthumb -2.15002 -44.5579
rfemur -75.4577 8.52147 23.0123
rtibia 98.8998
rfoot -43.4943 -29.4393
rtoes 25.9037
lfemur -79.4208 -3.69138 -21.1254
ltibia 95.9423
lfoot -38.1206 3.22585
ltoes -34.7754
273
root 9.03859 11.6333 10.2066 198.557 -10.2693 -180.34
lowerback 39.2609 -0.0615167 3.39614
upperback 0.249791 0.934067 1.22768
thorax -19.3943 -0.185769 -0.766982
lowerneck -10.8138 -2.55041 -7.91157
upperneck -23.4773 -5.104 7.7565
head -4.98752 -3.75973 3.98211
rclavicle -1.19271e-014 1.31198e-014
rhumerus 42.5474 5.18585 -69.2949
rradius 42.5548
rwrist 27.4394
rhand -30.7266 -54.8033
rfingers 7.12502
rthumb -4.01912 -84.7451
lclavicle -1.19271e-014 1.31198e-014
lhumerus 45.1105 -7.0338 75.4248
lradius 36.4814
lwrist -11.3633
lhand -28.8993 -74.7932
lfingers 7.12502
lthumb -2.25443 -44.8253
rfemur -74.7766 8.26182 23.1874
rtibia 98.3901
rfoot -43.4263 -29.3507
rtoes 25.7253
lfemur -78.8314 -3.63028 -21.108
ltibia 95.4087
lfoot -38.0751 2.84102
ltoes -34.3072
